<?xml version="1.0" encoding="UTF-8"?>
<svg id="Layer_1" data-name="Layer 1" xmlns="http://www.w3.org/2000/svg" version="1.1" viewBox="0 0 1500 457">
  <defs>
    <style>
      .cls-1 {
        fill: #fdfdfd;
      }

      .cls-1, .cls-2, .cls-3, .cls-4 {
        stroke-width: 0px;
      }

      .cls-2 {
        fill: #020202;
      }

      .cls-3 {
        fill: #010101;
      }

      .cls-4 {
        fill: #fff;
      }
    </style>
  </defs>
  <path class="cls-4" d="M994.5,458H258.5V1h985v457h-249M345,352.8h15.4c-.6-19.8-1.4-38.9-1.6-58-.4-28.3-.1-56.7-.5-85-.2-11.3-1.3-22.5-2-33.7.4-.1.8-.3,1.2-.4,17.2,59.6,41.3,117,58.2,177h54.3c15.8-59.8,41.9-116.1,58.1-176.6-.9,59.5-1.7,117.9-2.6,176.5h60.5c-2-88.8-2.3-177.5.3-266.2h-83.7c-5.4,31.9-18.1,61.3-28.2,91.5-10,30.1-20.7,60-31.4,90.8-.7-1.8-1.1-2.7-1.5-3.7-8.2-23.5-16.5-47-24.6-70.5-10.1-29.5-20.1-59.1-29.9-88.7-2.1-6.3-3-12.9-4.4-19.3h-83.4c2.4,88.8,2.1,177.4.2,266.4h45.6M1151.6,150.3c-7.5-21.3-14.9-42.5-22.5-64h-81.2c-30.9,89.5-63.3,177.8-95.1,266.3h72.7c5.9-20.9,11.7-41.3,17.4-61.4h92.3c5.5,20.4,11.1,40.8,16.7,61.3h73.6c-3.8-9.6-7.6-18.8-11-28.1-20.9-57.7-41.8-115.5-62.9-174M808.1,104.9c-2-4.9-4.3-9.8-5.9-14.8-1-3-2.3-4.1-5.6-4-24.3.2-48.7,0-73,0-1.1,0-2.1.2-3.9.3,4.5,6.6,8.9,12.4,12.7,18.6,28.4,46.2,56.7,92.4,84.9,138.6.7,1.2,1.3,2.8,1.3,4.2-.2,29.1-.5,58.3-.9,87.4,0,5.7-.8,11.5-1.2,17.1h69.6c-.6-7.3-1.4-14.3-1.6-21.3-.4-27.3-.6-54.6-.8-81.9,0-2,.8-4.2,1.9-6,6.3-10.7,12.8-21.4,19.3-32,25.4-41,50.9-81.9,76.4-122.8.4-.6.6-1.4.9-2.2h-80.1c-13,34.7-33.9,65.1-50.7,98.7-14.7-27.2-28.8-53.3-43.3-80.1M647,352.8h49.3c-1.6-89.2-1.5-177.8,0-266.4h-68.6c3.8,44.5,1.9,88.8,1.9,133.1,0,44.4,1.9,88.8-1.9,133.4h19.3Z"/>
  <path class="cls-3" d="M344.5,352.8h-45.1c1.9-89,2.1-177.6-.2-266.4h83.4c1.4,6.4,2.4,13,4.4,19.3,9.8,29.6,19.8,59.2,29.9,88.7,8.1,23.6,16.4,47,24.6,70.5.3.9.7,1.8,1.5,3.7,10.7-30.8,21.3-60.7,31.4-90.8,10.1-30.2,22.8-59.6,28.2-91.5h83.7c-2.6,88.8-2.2,177.4-.3,266.2h-60.5c.9-58.6,1.7-117,2.6-176.5-16.2,60.5-42.4,116.7-58.1,176.6h-54.3c-16.9-60-40.9-117.4-58.2-177-.4.1-.8.3-1.2.4.7,11.2,1.9,22.5,2,33.7.4,28.3.1,56.6.5,85,.2,19.1,1.1,38.2,1.6,58h-15.9M529.3,175.4c-.1-.3-.3-.5-.4-.8,0,.4,0,.8.4.8Z"/>
  <path class="cls-3" d="M1151.7,150.7c21,58.1,41.8,115.9,62.8,173.7,3.4,9.3,7.2,18.5,11,28.1h-73.6c-5.6-20.5-11.2-41-16.7-61.3h-92.3c-5.7,20.1-11.5,40.5-17.4,61.4h-72.7c31.9-88.4,64.3-176.8,95.1-266.3h81.2c7.6,21.5,15,42.8,22.6,64.4M1093.9,159.1c-1.7-5.3-3.4-10.6-5-15.9-.3,0-.6,0-.9,0-9.6,31.1-19.3,62.2-29,93.6h59.6c-8.1-25.8-16.2-51.5-24.6-77.8Z"/>
  <path class="cls-2" d="M808.2,105.3c14.3,26.5,28.4,52.6,43.1,79.7,16.8-33.6,37.7-64,50.7-98.7h80.1c-.3.8-.5,1.5-.9,2.2-25.4,40.9-50.9,81.9-76.4,122.8-6.6,10.6-13,21.3-19.3,32-1,1.8-1.9,4-1.9,6,.1,27.3.4,54.6.8,81.9.1,7,1,13.9,1.6,21.3h-69.6c.4-5.7,1.1-11.4,1.2-17.1.4-29.1.7-58.3.9-87.4,0-1.4-.5-3-1.3-4.2-28.3-46.2-56.5-92.5-84.9-138.6-3.8-6.2-8.2-12-12.7-18.6,1.8-.1,2.9-.3,3.9-.3,24.3,0,48.7,0,73,0,3.3,0,4.6,1,5.6,4,1.6,5,3.9,9.9,6,15.1Z"/>
  <path class="cls-2" d="M646.5,352.8h-18.8c3.7-44.6,1.9-89,1.9-133.4,0-44.3,1.9-88.6-1.9-133.1h68.6c-1.5,88.6-1.5,177.3,0,266.4h-49.8Z"/>
  <path class="cls-4" d="M529.1,175.6c-.2-.2-.2-.6-.3-.9.1.3.3.5.3.9Z"/>
  <path class="cls-1" d="M1094.1,159.4c8.2,26,16.3,51.6,24.5,77.4h-59.6c9.7-31.4,19.4-62.5,29-93.6.3,0,.6,0,.9,0,1.7,5.3,3.4,10.6,5.2,16.2Z"/>
</svg>