<svg version="1.1" id="Layer_1" xmlns="http://www.w3.org/2000/svg" xmlns:xlink="http://www.w3.org/1999/xlink" x="0px" y="0px"
	 width="100%" viewBox="0 0 985 457" enable-background="new 0 0 985 457" xml:space="preserve">
<path fill="#FFFFFF" opacity="1.000000" stroke="none" 
	d="
M737.000000,458.000000 
	C491.333344,458.000000 246.166672,458.000000 1.000000,458.000000 
	C1.000000,305.666656 1.000000,153.333328 1.000000,1.000000 
	C329.333344,1.000000 657.666687,1.000000 986.000000,1.000000 
	C986.000000,153.333328 986.000000,305.666656 986.000000,458.000000 
	C903.166687,458.000000 820.333313,458.000000 737.000000,458.000000 
M87.497147,352.835510 
	C92.908142,352.835510 98.319130,352.835510 102.870811,352.835510 
	C102.291016,333.056610 101.468590,313.946960 101.232216,294.830078 
	C100.882027,266.508667 101.131996,238.179581 100.744751,209.858978 
	C100.590904,198.606873 99.417068,187.368698 98.707611,176.124191 
	C99.108948,175.995621 99.510292,175.867050 99.911636,175.738480 
	C117.152878,235.368652 141.195175,292.729767 158.082870,352.728027 
	C175.960693,352.728027 194.270569,352.728027 212.432159,352.728027 
	C228.201569,292.884705 254.371979,236.655396 270.581177,176.150314 
	C269.703796,235.624115 268.842133,294.032410 267.977692,352.630981 
	C288.019897,352.630981 308.788208,352.630981 328.476776,352.630981 
	C326.521759,263.796692 326.176514,175.165543 328.752533,86.383698 
	C301.329895,86.383698 273.243652,86.383698 245.041504,86.383698 
	C239.676102,118.244202 226.929642,147.645691 216.855453,177.858292 
	C206.822128,207.948364 196.160980,237.829086 185.492294,268.617767 
	C184.753143,266.783112 184.347061,265.883270 184.022903,264.954773 
	C175.816742,241.450272 167.513275,217.979034 159.446976,194.426590 
	C149.335266,164.901917 139.307877,135.347046 129.508896,105.717628 
	C127.439056,99.459007 126.514877,92.821510 125.082870,86.447800 
	C96.877472,86.447800 68.948547,86.447800 41.706779,86.447800 
	C44.075134,175.271179 43.797195,263.811798 41.938099,352.835510 
	C56.246906,352.835510 71.372452,352.835510 87.497147,352.835510 
M894.095398,150.343811 
	C886.638611,129.091583 879.181885,107.839363 871.623474,86.297516 
	C844.527710,86.297516 816.894043,86.297516 790.400085,86.297516 
	C759.534302,175.757614 727.124756,264.145203 695.259460,352.558502 
	C719.774475,352.558502 744.369751,352.558502 767.934998,352.558502 
	C773.855103,331.653168 779.626587,311.272675 785.324768,291.151154 
	C816.510925,291.151154 846.643005,291.151154 877.628662,291.151154 
	C883.175415,311.518188 888.743286,331.962891 894.334473,352.493164 
	C918.423828,352.493164 943.108032,352.493164 967.956299,352.493164 
	C964.201904,342.888580 960.385986,333.709106 957.001465,324.373199 
	C936.067139,266.628967 915.229919,208.849518 894.095398,150.343811 
M550.591187,104.909531 
	C548.598450,99.989868 546.336243,95.156967 544.713440,90.118149 
	C543.732605,87.072601 542.416565,86.058365 539.158386,86.079239 
	C514.827820,86.235138 490.495880,86.161224 466.164337,86.175224 
	C465.094635,86.175842 464.024994,86.330711 462.233185,86.469780 
	C466.740204,93.062813 471.097015,98.899803 474.896393,105.079506 
	C503.280212,151.245865 531.560730,197.475754 559.823364,243.716431 
	C560.562195,244.925186 561.116455,246.486786 561.105225,247.878586 
	C560.869934,277.027161 560.596069,306.175781 560.181946,335.322266 
	C560.100464,341.054779 559.405701,346.778534 558.998230,352.444733 
	C582.554443,352.444733 605.591370,352.444733 628.600891,352.444733 
	C628.043335,345.101013 627.158569,338.150116 627.049927,331.187134 
	C626.623840,303.876984 626.401855,276.563232 626.253540,249.250031 
	C626.242676,247.249298 627.065125,245.031769 628.104736,243.272293 
	C634.447571,232.537338 640.867126,221.844757 647.442383,211.250504 
	C672.861267,170.294601 698.350098,129.382065 723.795410,88.442558 
	C724.186768,87.812912 724.356079,87.045258 724.659119,86.264496 
	C697.650513,86.264496 670.993713,86.264496 644.590759,86.264496 
	C631.585266,120.991692 610.686035,151.374832 593.860291,184.985031 
	C579.159973,157.818039 565.031677,131.708160 550.591187,104.909531 
M389.500458,352.837402 
	C406.288452,352.837402 423.076416,352.837402 438.809021,352.837402 
	C437.256622,263.685120 437.287262,175.053452 438.771729,86.424255 
	C416.342590,86.424255 393.243164,86.424255 370.136780,86.424255 
	C373.939240,130.905640 371.996124,175.220596 372.008057,219.487167 
	C372.020020,263.849152 373.890808,308.248871 370.156494,352.837402 
	C376.539764,352.837402 382.520264,352.837402 389.500458,352.837402 
z"/>
<path fill="#010101" opacity="1.000000" stroke="none" 
	d="
M86.997574,352.835510 
	C71.372452,352.835510 56.246906,352.835510 41.938099,352.835510 
	C43.797195,263.811798 44.075134,175.271179 41.706779,86.447800 
	C68.948547,86.447800 96.877472,86.447800 125.082870,86.447800 
	C126.514877,92.821510 127.439056,99.459007 129.508896,105.717628 
	C139.307877,135.347046 149.335266,164.901917 159.446976,194.426590 
	C167.513275,217.979034 175.816742,241.450272 184.022903,264.954773 
	C184.347061,265.883270 184.753143,266.783112 185.492294,268.617767 
	C196.160980,237.829086 206.822128,207.948364 216.855453,177.858292 
	C226.929642,147.645691 239.676102,118.244202 245.041504,86.383698 
	C273.243652,86.383698 301.329895,86.383698 328.752533,86.383698 
	C326.176514,175.165543 326.521759,263.796692 328.476776,352.630981 
	C308.788208,352.630981 288.019897,352.630981 267.977692,352.630981 
	C268.842133,294.032410 269.703796,235.624115 270.581177,176.150314 
	C254.371979,236.655396 228.201569,292.884705 212.432159,352.728027 
	C194.270569,352.728027 175.960693,352.728027 158.082870,352.728027 
	C141.195175,292.729767 117.152878,235.368652 99.911636,175.738480 
	C99.510292,175.867050 99.108948,175.995621 98.707611,176.124191 
	C99.417068,187.368698 100.590904,198.606873 100.744751,209.858978 
	C101.131996,238.179581 100.882027,266.508667 101.232216,294.830078 
	C101.468590,313.946960 102.291016,333.056610 102.870811,352.835510 
	C98.319130,352.835510 92.908142,352.835510 86.997574,352.835510 
M271.776672,175.358307 
	C271.634186,175.107208 271.491699,174.856094 271.349213,174.604996 
	C271.376099,174.986984 271.402954,175.368973 271.776672,175.358307 
z"/>
<path fill="#010101" opacity="1.000000" stroke="none" 
	d="
M894.227905,150.712799 
	C915.229919,208.849518 936.067139,266.628967 957.001465,324.373199 
	C960.385986,333.709106 964.201904,342.888580 967.956299,352.493164 
	C943.108032,352.493164 918.423828,352.493164 894.334473,352.493164 
	C888.743286,331.962891 883.175415,311.518188 877.628662,291.151154 
	C846.643005,291.151154 816.510925,291.151154 785.324768,291.151154 
	C779.626587,311.272675 773.855103,331.653168 767.934998,352.558502 
	C744.369751,352.558502 719.774475,352.558502 695.259460,352.558502 
	C727.124756,264.145203 759.534302,175.757614 790.400085,86.297516 
	C816.894043,86.297516 844.527710,86.297516 871.623474,86.297516 
	C879.181885,107.839363 886.638611,129.091583 894.227905,150.712799 
M836.390198,159.077347 
	C834.710938,153.784531 833.031616,148.491699 831.352295,143.198883 
	C831.038513,143.229980 830.724670,143.261093 830.410889,143.292191 
	C820.781433,174.385117 811.152039,205.478058 801.424072,236.889069 
	C821.673706,236.889069 841.155457,236.889069 861.035767,236.889069 
	C852.887939,211.054031 844.806458,185.429169 836.390198,159.077347 
z"/>
<path fill="#020202" opacity="1.000000" stroke="none" 
	d="
M550.747253,105.253906 
	C565.031677,131.708160 579.159973,157.818039 593.860291,184.985031 
	C610.686035,151.374832 631.585266,120.991692 644.590759,86.264496 
	C670.993713,86.264496 697.650513,86.264496 724.659119,86.264496 
	C724.356079,87.045258 724.186768,87.812912 723.795410,88.442558 
	C698.350098,129.382065 672.861267,170.294601 647.442383,211.250504 
	C640.867126,221.844757 634.447571,232.537338 628.104736,243.272293 
	C627.065125,245.031769 626.242676,247.249298 626.253540,249.250031 
	C626.401855,276.563232 626.623840,303.876984 627.049927,331.187134 
	C627.158569,338.150116 628.043335,345.101013 628.600891,352.444733 
	C605.591370,352.444733 582.554443,352.444733 558.998230,352.444733 
	C559.405701,346.778534 560.100464,341.054779 560.181946,335.322266 
	C560.596069,306.175781 560.869934,277.027161 561.105225,247.878586 
	C561.116455,246.486786 560.562195,244.925186 559.823364,243.716431 
	C531.560730,197.475754 503.280212,151.245865 474.896393,105.079506 
	C471.097015,98.899803 466.740204,93.062813 462.233185,86.469780 
	C464.024994,86.330711 465.094635,86.175842 466.164337,86.175224 
	C490.495880,86.161224 514.827820,86.235138 539.158386,86.079239 
	C542.416565,86.058365 543.732605,87.072601 544.713440,90.118149 
	C546.336243,95.156967 548.598450,99.989868 550.747253,105.253906 
z"/>
<path fill="#020202" opacity="1.000000" stroke="none" 
	d="
M389.000610,352.837402 
	C382.520264,352.837402 376.539764,352.837402 370.156494,352.837402 
	C373.890808,308.248871 372.020020,263.849152 372.008057,219.487167 
	C371.996124,175.220596 373.939240,130.905640 370.136780,86.424255 
	C393.243164,86.424255 416.342590,86.424255 438.771729,86.424255 
	C437.287262,175.053452 437.256622,263.685120 438.809021,352.837402 
	C423.076416,352.837402 406.288452,352.837402 389.000610,352.837402 
z"/>
<path fill="#FFFFFF" opacity="1.000000" stroke="none" 
	d="
M271.603241,175.554626 
	C271.402954,175.368973 271.376099,174.986984 271.349213,174.604996 
	C271.491699,174.856094 271.634186,175.107208 271.603241,175.554626 
z"/>
<path fill="#FDFDFD" opacity="1.000000" stroke="none" 
	d="
M836.557556,159.440826 
	C844.806458,185.429169 852.887939,211.054031 861.035767,236.889069 
	C841.155457,236.889069 821.673706,236.889069 801.424072,236.889069 
	C811.152039,205.478058 820.781433,174.385117 830.410889,143.292191 
	C830.724670,143.261093 831.038513,143.229980 831.352295,143.198883 
	C833.031616,148.491699 834.710938,153.784531 836.557556,159.440826 
z"/>
</svg>